<svg xmlns="http://www.w3.org/2000/svg" viewBox="0 0 512.001 512.001" xml:space="preserve"><path style="fill:#ffe6b8" d="M463.311 200.044a213.4 213.4 0 0 0-21.155-51.064c14.05-16.402 13.324-41.113-2.204-56.641l-20.289-20.29c-15.528-15.528-40.239-16.255-56.641-2.204a213.4 213.4 0 0 0-51.064-21.155c-1.665-21.532-19.651-38.489-41.61-38.489h-28.693c-21.959 0-39.945 16.957-41.61 38.49a213.4 213.4 0 0 0-51.064 21.155c-16.402-14.05-41.113-13.324-56.641 2.204L72.05 92.338c-15.528 15.528-16.255 40.239-2.204 56.641a213.4 213.4 0 0 0-21.155 51.064c-21.533 1.666-38.49 19.652-38.49 41.611v28.693c0 21.959 16.957 39.945 38.49 41.61a213.4 213.4 0 0 0 21.155 51.064c-14.05 16.402-13.324 41.113 2.204 56.641l20.289 20.289c15.528 15.528 40.239 16.255 56.641 2.204a213.4 213.4 0 0 0 51.064 21.155c1.665 21.533 19.651 38.491 41.611 38.491h28.693c21.959 0 39.945-16.957 41.61-38.49a213.4 213.4 0 0 0 51.064-21.155c16.402 14.05 41.113 13.324 56.641-2.204l20.289-20.289c15.528-15.528 16.255-40.239 2.204-56.641a213.4 213.4 0 0 0 21.155-51.064c21.532-1.665 38.49-19.652 38.49-41.611v-28.693c0-21.959-16.957-39.945-38.49-41.61"/><circle style="fill:#ffad61" cx="256" cy="256.001" r="170.837"/><path style="fill:#4d3d36" d="M270.346 512.001h-28.693c-24.488 0-45.499-17.362-50.7-40.679a224 224 0 0 1-41.212-17.071c-20.166 12.813-47.299 10.231-64.616-7.086l-20.288-20.289c-17.317-17.317-19.895-44.451-7.086-64.616a224 224 0 0 1-17.072-41.212C17.362 315.847 0 294.837 0 270.347v-28.693c0-24.489 17.362-45.5 40.677-50.701a224 224 0 0 1 17.072-41.212c-12.809-20.164-10.23-47.298 7.085-64.616l20.29-20.289c17.315-17.317 44.45-19.896 64.616-7.085a223.7 223.7 0 0 1 41.212-17.072C196.155 17.362 217.166 0 241.654 0h28.693c24.488 0 45.5 17.361 50.7 40.677a224 224 0 0 1 41.212 17.072c20.165-12.812 47.299-10.231 64.616 7.085l20.289 20.289c17.316 17.317 19.895 44.452 7.086 64.616a224 224 0 0 1 17.072 41.212c23.315 5.202 40.677 26.212 40.677 50.701v28.693c0 24.489-17.362 45.499-40.677 50.7a224 224 0 0 1-17.072 41.212c12.809 20.165 10.231 47.3-7.086 64.616l-20.289 20.289c-17.316 17.316-44.451 19.896-64.615 7.086a223.7 223.7 0 0 1-41.212 17.071c-5.202 23.32-26.212 40.682-50.702 40.682m-121.365-80.042c1.748 0 3.504.448 5.089 1.362a203.3 203.3 0 0 0 48.625 20.143 10.2 10.2 0 0 1 7.517 9.063c1.262 16.304 15.071 29.076 31.442 29.076h28.693c16.37 0 30.18-12.771 31.442-29.077a10.2 10.2 0 0 1 7.517-9.063 203.4 203.4 0 0 0 48.625-20.143 10.2 10.2 0 0 1 11.727 1.091c12.421 10.641 31.218 9.906 42.794-1.672l20.29-20.289c11.576-11.576 12.309-30.373 1.67-42.794a10.2 10.2 0 0 1-1.091-11.727 203.3 203.3 0 0 0 20.143-48.625 10.2 10.2 0 0 1 9.063-7.518c16.303-1.259 29.075-15.068 29.075-31.439v-28.693c0-16.371-12.771-30.181-29.076-31.441a10.2 10.2 0 0 1-9.063-7.518 203.4 203.4 0 0 0-20.143-48.625 10.2 10.2 0 0 1 1.091-11.727c10.64-12.421 9.905-31.217-1.671-42.794L412.451 79.26c-11.577-11.578-30.375-12.31-42.794-1.671a10.2 10.2 0 0 1-11.727 1.091 203.3 203.3 0 0 0-48.625-20.144 10.2 10.2 0 0 1-7.517-9.063c-1.261-16.302-15.071-29.074-31.442-29.074h-28.693c-16.37 0-30.18 12.771-31.441 29.076a10.2 10.2 0 0 1-7.517 9.063 203.3 203.3 0 0 0-48.625 20.144 10.2 10.2 0 0 1-11.727-1.091c-12.422-10.642-31.219-9.906-42.795 1.671L79.259 99.549c-11.576 11.577-12.309 30.373-1.67 42.794a10.2 10.2 0 0 1 1.091 11.727 203.3 203.3 0 0 0-20.143 48.626 10.2 10.2 0 0 1-9.063 7.517c-16.304 1.261-29.076 15.071-29.076 31.442v28.693c0 16.371 12.771 30.18 29.076 31.44a10.2 10.2 0 0 1 9.063 7.517 203.4 203.4 0 0 0 20.143 48.626 10.2 10.2 0 0 1-1.091 11.727c-10.64 12.421-9.906 31.218 1.67 42.794l20.289 20.289c11.577 11.577 30.374 12.31 42.795 1.672a10.2 10.2 0 0 1 6.638-2.454"/><path style="fill:#4d3d36" d="M256 437.037c-99.824 0-181.036-81.212-181.036-181.036S156.176 74.965 256 74.965s181.036 81.212 181.036 181.036S355.824 437.037 256 437.037m0-341.673c-88.576 0-160.637 72.061-160.637 160.637S167.424 416.638 256 416.638s160.637-72.061 160.637-160.637S344.576 95.364 256 95.364"/><path style="fill:#4d3d36" d="M391.139 266.2c-5.633 0-10.199-4.567-10.199-10.199 0-24.602-7.14-48.403-20.65-68.828-3.107-4.698-1.818-11.026 2.88-14.133 4.698-3.108 11.025-1.817 14.133 2.88 15.724 23.772 24.035 51.464 24.035 80.081.001 5.632-4.566 10.199-10.199 10.199m-43.08-98.932c-2.488 0-4.981-.905-6.947-2.734a128 128 0 0 0-4.242-3.774c-4.292-3.648-4.812-10.085-1.164-14.377s10.086-4.813 14.377-1.164a148 148 0 0 1 4.927 4.384c4.123 3.838 4.354 10.291.516 14.415a10.16 10.16 0 0 1-7.467 3.25m-99.098 182.109c-31.435-.503-51.05-17.855-51.05-28.417 0-5.029 4.526-11.568 9.305-11.568 7.042 0 13.076 18.86 41.745 20.119v-66.894c-22.382-7.796-46.524-16.094-46.524-48.284 0-31.686 23.891-42.751 46.524-44.763v-7.544c0-2.766 2.766-5.281 6.539-5.281 3.269 0 6.539 2.515 6.539 5.281v7.042c17.855.754 39.734 6.538 39.734 16.597 0 4.023-3.27 11.568-9.053 11.568-5.281 0-12.323-8.299-30.68-9.305v57.338c21.376 7.796 44.26 18.358 44.26 52.809 0 30.68-18.106 47.026-44.26 50.548v9.053c0 2.766-3.27 5.281-6.539 5.281-3.773 0-6.539-2.515-6.539-5.281zm1.005-108.388V188.18c-15.089 1.508-27.41 8.047-27.41 24.142-.001 17.351 12.573 23.135 27.41 28.667m11.065 26.406v61.612c15.843-2.515 25.148-12.323 25.148-28.92 0-19.113-11.317-26.908-25.148-32.692"/></svg>